<svg width="48" height="48" viewBox="0 0 100 100" xmlns="http://www.w3.org/2000/svg">
  <defs>
    <linearGradient id="orange-gradient" x1="0%" y1="0%" x2="100%" y2="100%">
      <stop offset="0%" stop-color="#F97316"/>
      <stop offset="50%" stop-color="#FB923C"/>
      <stop offset="100%" stop-color="#FDBA74"/>
    </linearGradient>
    <filter id="glow-orange">
      <feGaussianBlur stdDeviation="2" result="coloredBlur"/>
      <feMerge>
        <feMergeNode in="coloredBlur"/>
        <feMergeNode in="SourceGraphic"/>
      </feMerge>
    </filter>
    <filter id="shadow-orange">
      <feDropShadow dx="0" dy="2" stdDeviation="3" flood-color="#F97316" flood-opacity="0.4"/>
    </filter>
    <radialGradient id="radial-orange">
      <stop offset="0%" stop-color="#FDBA74" stop-opacity="0.3"/>
      <stop offset="100%" stop-color="#F97316" stop-opacity="0.05"/>
    </radialGradient>
  </defs>
  <circle cx="50" cy="50" r="45" fill="url(#radial-orange)"/>
  <path d="M 50 12 L 78 28 L 78 60 L 50 76 L 22 60 L 22 28 Z" fill="none" stroke="url(#orange-gradient)" stroke-width="3.5" stroke-linejoin="round" filter="url(#glow-orange)"/>
  <path d="M 50 20 L 70 32 L 70 56 L 50 68 L 30 56 L 30 32 Z" fill="#F97316" fill-opacity="0.15" stroke="#FDBA74" stroke-width="1.5"/>
  <g opacity="0.7">
    <line x1="50" y1="25" x2="50" y2="40" stroke="#FDBA74" stroke-width="2"/>
    <line x1="35" y1="35" x2="45" y2="45" stroke="#FDBA74" stroke-width="2"/>
    <line x1="65" y1="35" x2="55" y2="45" stroke="#FDBA74" stroke-width="2"/>
    <line x1="32" y1="50" x2="45" y2="50" stroke="#FDBA74" stroke-width="2"/>
    <line x1="68" y1="50" x2="55" y2="50" stroke="#FDBA74" stroke-width="2"/>
  </g>
  <g filter="url(#shadow-orange)">
    <path d="M 40 63 L 50 38 L 60 63 M 44 55 L 56 55" fill="none" stroke="url(#orange-gradient)" stroke-width="5" stroke-linecap="round" stroke-linejoin="round"/>
    <circle cx="50" cy="33" r="4" fill="#F97316" filter="url(#glow-orange)"/>
  </g>
  <g>
    <circle cx="50" cy="14" r="3" fill="#FB923C"/>
    <circle cx="72.1" cy="29" r="3" fill="#FB923C"/>
    <circle cx="72.1" cy="59" r="3" fill="#FB923C"/>
    <circle cx="50" cy="74" r="3" fill="#FB923C"/>
    <circle cx="27.9" cy="59" r="3" fill="#FB923C"/>
    <circle cx="27.9" cy="29" r="3" fill="#FB923C"/>
  </g>
  <circle cx="50" cy="50" r="42" fill="none" stroke="#FB923C" stroke-width="1" stroke-dasharray="3 3" opacity="0.4"/>
</svg>